<svg width="25" height="25" viewBox="0 0 25 25" fill="none" xmlns="http://www.w3.org/2000/svg">
<g clip-path="url(#clip0_36_35)">
<path d="M12.5 25C5.5975 25 0 19.4025 0 12.5C0 5.5975 5.5975 0 12.5 0C19.4025 0 25 5.5975 25 12.5C25 19.4025 19.4025 25 12.5 25Z" fill="#3B579D"/>
<path d="M15.75 25V15.3175H19L19.4875 11.545H15.75V9.13503C15.75 8.04253 16.0525 7.29753 17.62 7.29753H19.6175V3.92503C19.2725 3.88003 18.085 3.77753 16.705 3.77753C13.825 3.77753 11.8525 5.53503 11.8525 8.76503V11.5475H8.59497V15.32H11.8525V25H15.75Z" fill="white"/>
</g>
<defs>
<clipPath id="clip0_36_35">
<rect width="25" height="25" fill="white"/>
</clipPath>
</defs>
</svg>
