<svg width="25" height="25" viewBox="0 0 25 25" fill="none" xmlns="http://www.w3.org/2000/svg">
<path d="M24.5025 12.7998C24.5025 11.9556 24.4208 11.0841 24.2847 10.2672H12.4929V15.0873H19.2466C18.9743 16.6396 18.0756 18.0012 16.7412 18.8726L20.7717 22.0044C23.1409 19.7985 24.5025 16.5851 24.5025 12.7998Z" fill="#4280EF"/>
<path d="M12.493 25C15.8699 25 18.7021 23.8835 20.7718 21.9772L16.7413 18.8727C15.6248 19.6352 14.1815 20.0709 12.493 20.0709C9.22512 20.0709 6.47461 17.8651 5.467 14.924L1.32764 18.1102C3.45179 22.3312 7.75455 25 12.493 25Z" fill="#34A353"/>
<path d="M5.46696 14.8967C4.94954 13.3444 4.94954 11.656 5.46696 10.1038L1.32759 6.89032C-0.442531 10.4306 -0.442531 14.5971 1.32759 18.1101L5.46696 14.8967Z" fill="#F6B704"/>
<path d="M12.493 4.9568C14.2632 4.92957 16.0061 5.61038 17.286 6.83585L20.8535 3.24115C18.5932 1.11701 15.5976 -0.0267573 12.493 0.000475287C7.75455 0.000475287 3.45179 2.66927 1.32764 6.89032L5.46701 10.1038C6.47461 7.13541 9.22512 4.9568 12.493 4.9568Z" fill="#E54335"/>
</svg>
