<svg xmlns="http://www.w3.org/2000/svg" xmlns:xlink="http://www.w3.org/1999/xlink" width="500" zoomAndPan="magnify" viewBox="0 0 375 374.999991" height="500" preserveAspectRatio="xMidYMid meet" version="1.2"><defs><clipPath id="0903c30f43"><path d="M 178 120.167969 L 215 120.167969 L 215 157 L 178 157 Z M 178 120.167969 "/></clipPath><clipPath id="0e484d13fb"><path d="M 160 171 L 197 171 L 197 207.917969 L 160 207.917969 Z M 160 171 "/></clipPath></defs><g id="fe82822793"><rect x="0" width="375" y="0" height="374.999991" style="fill:#ffffff;fill-opacity:1;stroke:none;"/><rect x="0" width="375" y="0" height="374.999991" style="fill:#1b27a1;fill-opacity:1;stroke:none;"/><g clip-rule="nonzero" clip-path="url(#0903c30f43)"><path style=" stroke:none;fill-rule:nonzero;fill:#f8f9f9;fill-opacity:1;" d="M 188.878906 136.382812 L 184.882812 130.300781 L 194.929688 140.347656 C 194.703125 140.691406 194.5 141.046875 194.316406 141.414062 C 194.136719 141.785156 193.976562 142.160156 193.835938 142.550781 C 193.699219 142.9375 193.585938 143.332031 193.496094 143.730469 C 193.402344 144.132812 193.335938 144.535156 193.292969 144.945312 C 193.25 145.355469 193.230469 145.765625 193.238281 146.175781 C 193.242188 146.585938 193.273438 146.996094 193.324219 147.402344 C 193.378906 147.808594 193.457031 148.210938 193.558594 148.609375 C 193.660156 149.007812 193.785156 149.398438 193.933594 149.78125 C 194.082031 150.167969 194.253906 150.539062 194.445312 150.902344 C 194.636719 151.265625 194.851562 151.617188 195.085938 151.953125 C 195.316406 152.292969 195.570312 152.617188 195.84375 152.921875 C 196.117188 153.230469 196.40625 153.523438 196.710938 153.796875 C 197.019531 154.070312 197.339844 154.324219 197.675781 154.558594 C 198.011719 154.796875 198.363281 155.011719 198.726562 155.203125 C 199.085938 155.398438 199.460938 155.570312 199.84375 155.722656 C 200.226562 155.871094 200.613281 155.996094 201.011719 156.101562 C 201.410156 156.207031 201.8125 156.285156 202.21875 156.339844 C 202.625 156.398438 203.035156 156.429688 203.445312 156.4375 C 203.859375 156.445312 204.269531 156.429688 204.675781 156.386719 C 205.085938 156.347656 205.492188 156.28125 205.890625 156.191406 C 206.292969 156.101562 206.6875 155.992188 207.074219 155.855469 C 207.464844 155.71875 207.84375 155.5625 208.210938 155.378906 C 208.582031 155.199219 208.9375 154.996094 209.28125 154.773438 C 209.628906 154.550781 209.957031 154.308594 210.277344 154.046875 C 210.59375 153.785156 210.890625 153.503906 211.175781 153.207031 C 211.457031 152.910156 211.722656 152.597656 211.96875 152.265625 C 212.214844 151.9375 212.441406 151.597656 212.648438 151.238281 C 212.851562 150.882812 213.035156 150.515625 213.199219 150.140625 C 213.359375 149.761719 213.5 149.375 213.617188 148.980469 C 213.734375 148.589844 213.824219 148.1875 213.894531 147.785156 C 213.964844 147.378906 214.007812 146.96875 214.03125 146.558594 C 214.050781 146.148438 214.046875 145.738281 214.019531 145.328125 C 213.992188 144.917969 213.9375 144.511719 213.863281 144.109375 C 213.785156 143.703125 213.6875 143.304688 213.5625 142.914062 C 213.441406 142.523438 213.292969 142.140625 213.125 141.765625 C 212.957031 141.390625 212.765625 141.027344 212.554688 140.671875 C 212.34375 140.320312 212.113281 139.984375 211.859375 139.660156 C 211.609375 139.332031 211.335938 139.023438 211.046875 138.730469 C 210.761719 138.441406 210.457031 138.164062 210.132812 137.910156 C 209.8125 137.652344 209.476562 137.414062 209.128906 137.199219 C 208.78125 136.980469 208.417969 136.785156 208.046875 136.613281 C 207.675781 136.4375 207.292969 136.285156 206.902344 136.15625 C 206.511719 136.027344 206.117188 135.921875 205.714844 135.839844 C 205.3125 135.757812 204.90625 135.699219 204.496094 135.667969 C 204.085938 135.632812 203.675781 135.625 203.265625 135.636719 C 202.855469 135.652344 202.445312 135.691406 202.039062 135.753906 C 201.632812 135.820312 201.234375 135.90625 200.835938 136.015625 C 200.441406 136.125 200.054688 136.261719 199.671875 136.417969 L 204.722656 144.097656 L 193.335938 132.710938 C 193.488281 132.445312 193.625 132.167969 193.742188 131.886719 C 193.863281 131.601562 193.964844 131.3125 194.054688 131.015625 C 194.140625 130.722656 194.207031 130.421875 194.257812 130.117188 C 194.3125 129.816406 194.34375 129.507812 194.359375 129.203125 C 194.378906 128.894531 194.375 128.585938 194.355469 128.28125 C 194.335938 127.972656 194.300781 127.667969 194.246094 127.363281 C 194.191406 127.0625 194.121094 126.761719 194.03125 126.46875 C 193.941406 126.171875 193.835938 125.886719 193.714844 125.601562 C 193.589844 125.320312 193.453125 125.046875 193.296875 124.78125 C 193.144531 124.511719 192.976562 124.257812 192.792969 124.007812 C 192.609375 123.761719 192.410156 123.527344 192.199219 123.304688 C 191.988281 123.078125 191.765625 122.867188 191.53125 122.667969 C 191.292969 122.472656 191.046875 122.289062 190.792969 122.117188 C 190.535156 121.949219 190.269531 121.792969 189.992188 121.65625 C 189.71875 121.515625 189.4375 121.390625 189.148438 121.285156 C 188.859375 121.179688 188.566406 121.089844 188.265625 121.015625 C 187.96875 120.945312 187.664062 120.890625 187.359375 120.851562 C 187.054688 120.816406 186.746094 120.792969 186.441406 120.792969 C 186.132812 120.789062 185.824219 120.804688 185.519531 120.839844 C 185.214844 120.875 184.910156 120.925781 184.609375 120.992188 C 184.308594 121.0625 184.015625 121.144531 183.726562 121.25 C 183.433594 121.351562 183.152344 121.46875 182.875 121.605469 C 182.597656 121.742188 182.332031 121.890625 182.070312 122.058594 C 181.8125 122.222656 181.5625 122.40625 181.324219 122.601562 C 181.085938 122.792969 180.863281 123.003906 180.648438 123.222656 C 180.433594 123.445312 180.234375 123.679688 180.046875 123.921875 C 179.859375 124.167969 179.6875 124.421875 179.527344 124.683594 C 179.371094 124.949219 179.226562 125.222656 179.101562 125.503906 C 178.976562 125.785156 178.867188 126.070312 178.773438 126.363281 C 178.679688 126.65625 178.605469 126.953125 178.546875 127.257812 C 178.484375 127.558594 178.445312 127.863281 178.421875 128.171875 C 178.398438 128.476562 178.390625 128.785156 178.40625 129.09375 C 178.417969 129.398438 178.445312 129.707031 178.492188 130.011719 C 178.542969 130.3125 178.605469 130.613281 178.6875 130.910156 C 178.769531 131.207031 178.871094 131.5 178.984375 131.785156 C 179.101562 132.070312 179.234375 132.347656 179.378906 132.617188 C 179.527344 132.886719 179.691406 133.148438 179.871094 133.398438 C 180.046875 133.648438 180.238281 133.890625 180.445312 134.117188 C 180.652344 134.347656 180.867188 134.5625 181.101562 134.765625 C 181.332031 134.972656 181.570312 135.160156 181.824219 135.335938 C 182.078125 135.511719 182.339844 135.671875 182.609375 135.820312 C 182.882812 135.964844 183.160156 136.09375 183.445312 136.207031 C 183.734375 136.320312 184.023438 136.417969 184.324219 136.496094 C 184.621094 136.574219 184.921875 136.636719 185.226562 136.683594 C 185.53125 136.726562 185.835938 136.753906 186.144531 136.761719 C 186.453125 136.773438 186.757812 136.765625 187.066406 136.738281 C 187.371094 136.710938 187.675781 136.667969 187.976562 136.605469 C 188.277344 136.542969 188.578125 136.464844 188.867188 136.371094 Z M 188.878906 136.382812 "/></g><path style=" stroke:none;fill-rule:nonzero;fill:#f8f9f9;fill-opacity:1;" d="M 228.015625 155.699219 C 227.382812 155.066406 226.660156 154.550781 225.851562 154.160156 C 225.046875 153.765625 224.195312 153.519531 223.304688 153.414062 C 222.410156 153.308594 221.527344 153.351562 220.648438 153.546875 C 219.773438 153.738281 218.953125 154.070312 218.1875 154.539062 C 217.421875 155.011719 216.753906 155.59375 216.183594 156.289062 C 215.617188 156.984375 215.179688 157.753906 214.867188 158.597656 C 214.558594 159.4375 214.398438 160.308594 214.382812 161.207031 C 214.367188 162.105469 214.5 162.980469 214.777344 163.835938 L 220.859375 159.835938 L 210.8125 169.882812 C 210.46875 169.660156 210.113281 169.457031 209.742188 169.273438 C 209.375 169.089844 208.996094 168.929688 208.609375 168.792969 C 208.222656 168.65625 207.828125 168.542969 207.429688 168.449219 C 207.027344 168.359375 206.625 168.292969 206.214844 168.25 C 205.804688 168.207031 205.398438 168.1875 204.984375 168.191406 C 204.574219 168.199219 204.164062 168.230469 203.757812 168.28125 C 203.351562 168.335938 202.949219 168.414062 202.550781 168.515625 C 202.152344 168.617188 201.761719 168.742188 201.378906 168.890625 C 200.996094 169.039062 200.621094 169.210938 200.257812 169.402344 C 199.894531 169.59375 199.546875 169.804688 199.207031 170.039062 C 198.871094 170.273438 198.546875 170.527344 198.238281 170.800781 C 197.929688 171.070312 197.640625 171.359375 197.367188 171.667969 C 197.09375 171.972656 196.839844 172.296875 196.601562 172.632812 C 196.367188 172.96875 196.152344 173.316406 195.957031 173.679688 C 195.765625 174.042969 195.59375 174.414062 195.441406 174.796875 C 195.292969 175.179688 195.164062 175.570312 195.0625 175.96875 C 194.957031 176.363281 194.878906 176.765625 194.824219 177.175781 C 194.765625 177.582031 194.734375 177.988281 194.726562 178.402344 C 194.71875 178.8125 194.734375 179.222656 194.777344 179.628906 C 194.816406 180.039062 194.882812 180.445312 194.972656 180.84375 C 195.0625 181.246094 195.171875 181.640625 195.308594 182.027344 C 195.445312 182.417969 195.601562 182.792969 195.785156 183.164062 C 195.964844 183.53125 196.164062 183.890625 196.386719 184.234375 C 196.609375 184.582031 196.855469 184.910156 197.117188 185.226562 C 197.378906 185.542969 197.65625 185.84375 197.957031 186.128906 C 198.253906 186.410156 198.566406 186.675781 198.894531 186.921875 C 199.222656 187.167969 199.566406 187.394531 199.921875 187.597656 C 200.277344 187.804688 200.644531 187.988281 201.023438 188.148438 C 201.398438 188.3125 201.785156 188.453125 202.179688 188.566406 C 202.574219 188.683594 202.972656 188.777344 203.378906 188.847656 C 203.785156 188.914062 204.191406 188.960938 204.601562 188.980469 C 205.011719 189 205.421875 189 205.832031 188.96875 C 206.242188 188.941406 206.648438 188.890625 207.050781 188.8125 C 207.457031 188.738281 207.855469 188.636719 208.246094 188.515625 C 208.636719 188.390625 209.019531 188.246094 209.394531 188.078125 C 209.769531 187.910156 210.132812 187.71875 210.484375 187.507812 C 210.839844 187.296875 211.175781 187.0625 211.5 186.8125 C 211.824219 186.558594 212.132812 186.289062 212.425781 186 C 212.71875 185.710938 212.992188 185.40625 213.25 185.085938 C 213.507812 184.765625 213.742188 184.429688 213.960938 184.082031 C 214.175781 183.734375 214.371094 183.371094 214.546875 183 C 214.722656 182.628906 214.871094 182.246094 215 181.855469 C 215.128906 181.46875 215.234375 181.070312 215.316406 180.667969 C 215.398438 180.265625 215.457031 179.859375 215.492188 179.449219 C 215.527344 179.039062 215.535156 178.628906 215.519531 178.21875 C 215.503906 177.808594 215.464844 177.402344 215.402344 176.996094 C 215.339844 176.589844 215.253906 176.1875 215.144531 175.792969 C 215.03125 175.398438 214.898438 175.007812 214.742188 174.628906 L 207.0625 179.675781 L 218.445312 168.292969 C 218.863281 168.527344 219.296875 168.722656 219.75 168.878906 C 220.203125 169.035156 220.664062 169.148438 221.136719 169.21875 C 221.609375 169.292969 222.085938 169.324219 222.5625 169.3125 C 223.039062 169.300781 223.515625 169.246094 223.980469 169.148438 C 224.449219 169.050781 224.90625 168.910156 225.347656 168.730469 C 225.792969 168.554688 226.214844 168.335938 226.621094 168.082031 C 227.023438 167.824219 227.402344 167.535156 227.753906 167.214844 C 228.109375 166.890625 228.429688 166.539062 228.71875 166.15625 C 229.007812 165.777344 229.261719 165.375 229.476562 164.945312 C 229.695312 164.519531 229.871094 164.078125 230.007812 163.621094 C 230.144531 163.164062 230.242188 162.695312 230.292969 162.222656 C 230.347656 161.746094 230.359375 161.269531 230.328125 160.792969 C 230.296875 160.316406 230.222656 159.84375 230.105469 159.382812 C 229.988281 158.917969 229.832031 158.46875 229.636719 158.03125 C 229.4375 157.597656 229.203125 157.183594 228.933594 156.789062 C 228.660156 156.394531 228.355469 156.027344 228.019531 155.691406 Z M 228.015625 155.699219 "/><g clip-rule="nonzero" clip-path="url(#0e484d13fb)"><path style=" stroke:none;fill-rule:nonzero;fill:#f8f9f9;fill-opacity:1;" d="M 185.597656 191.460938 L 189.597656 197.539062 L 179.550781 187.492188 C 179.773438 187.148438 179.976562 186.792969 180.160156 186.425781 C 180.34375 186.054688 180.503906 185.679688 180.640625 185.292969 C 180.777344 184.902344 180.894531 184.511719 180.984375 184.109375 C 181.074219 183.707031 181.140625 183.304688 181.183594 182.894531 C 181.226562 182.488281 181.246094 182.078125 181.242188 181.664062 C 181.234375 181.253906 181.207031 180.84375 181.152344 180.4375 C 181.097656 180.03125 181.019531 179.628906 180.917969 179.230469 C 180.816406 178.832031 180.691406 178.441406 180.542969 178.058594 C 180.394531 177.675781 180.226562 177.300781 180.03125 176.9375 C 179.839844 176.574219 179.628906 176.222656 179.394531 175.886719 C 179.160156 175.546875 178.90625 175.226562 178.632812 174.917969 C 178.363281 174.609375 178.074219 174.316406 177.765625 174.042969 C 177.460938 173.769531 177.136719 173.515625 176.800781 173.28125 C 176.464844 173.042969 176.117188 172.828125 175.753906 172.636719 C 175.390625 172.441406 175.019531 172.269531 174.636719 172.121094 C 174.253906 171.96875 173.863281 171.84375 173.464844 171.738281 C 173.066406 171.636719 172.664062 171.554688 172.257812 171.5 C 171.851562 171.441406 171.441406 171.410156 171.03125 171.402344 C 170.621094 171.394531 170.210938 171.414062 169.800781 171.453125 C 169.390625 171.496094 168.988281 171.558594 168.585938 171.648438 C 168.183594 171.738281 167.789062 171.851562 167.402344 171.984375 C 167.015625 172.121094 166.636719 172.28125 166.265625 172.460938 C 165.898438 172.640625 165.539062 172.84375 165.195312 173.066406 C 164.851562 173.289062 164.519531 173.53125 164.203125 173.792969 C 163.886719 174.054688 163.585938 174.335938 163.300781 174.632812 C 163.019531 174.929688 162.753906 175.242188 162.507812 175.574219 C 162.261719 175.902344 162.035156 176.246094 161.832031 176.601562 C 161.625 176.957031 161.441406 177.324219 161.277344 177.699219 C 161.117188 178.078125 160.976562 178.464844 160.859375 178.859375 C 160.746094 179.253906 160.652344 179.652344 160.582031 180.058594 C 160.515625 180.460938 160.46875 180.871094 160.449219 181.28125 C 160.425781 181.691406 160.429688 182.101562 160.457031 182.511719 C 160.488281 182.921875 160.539062 183.328125 160.613281 183.730469 C 160.691406 184.136719 160.789062 184.535156 160.914062 184.925781 C 161.039062 185.316406 161.183594 185.703125 161.351562 186.078125 C 161.519531 186.449219 161.710938 186.816406 161.921875 187.167969 C 162.132812 187.519531 162.367188 187.855469 162.617188 188.183594 C 162.871094 188.507812 163.140625 188.816406 163.429688 189.109375 C 163.71875 189.402344 164.023438 189.675781 164.34375 189.933594 C 164.664062 190.1875 165 190.425781 165.347656 190.640625 C 165.699219 190.859375 166.058594 191.054688 166.429688 191.230469 C 166.804688 191.402344 167.183594 191.554688 167.574219 191.683594 C 167.964844 191.8125 168.359375 191.917969 168.765625 192 C 169.167969 192.082031 169.574219 192.140625 169.980469 192.171875 C 170.390625 192.207031 170.800781 192.21875 171.210938 192.203125 C 171.625 192.1875 172.03125 192.148438 172.4375 192.085938 C 172.84375 192.023438 173.246094 191.933594 173.640625 191.824219 C 174.035156 191.714844 174.425781 191.578125 174.804688 191.421875 L 169.753906 183.742188 L 176.527344 190.515625 L 181.136719 195.128906 C 180.984375 195.394531 180.851562 195.671875 180.730469 195.957031 C 180.609375 196.238281 180.507812 196.527344 180.421875 196.824219 C 180.335938 197.121094 180.265625 197.421875 180.214844 197.722656 C 180.164062 198.027344 180.128906 198.332031 180.113281 198.640625 C 180.09375 198.949219 180.097656 199.253906 180.117188 199.5625 C 180.136719 199.871094 180.171875 200.175781 180.226562 200.480469 C 180.28125 200.78125 180.351562 201.082031 180.441406 201.375 C 180.53125 201.671875 180.636719 201.960938 180.757812 202.242188 C 180.882812 202.523438 181.019531 202.800781 181.171875 203.066406 C 181.328125 203.332031 181.496094 203.589844 181.679688 203.835938 C 181.863281 204.085938 182.0625 204.320312 182.273438 204.542969 C 182.484375 204.769531 182.707031 204.980469 182.941406 205.179688 C 183.179688 205.375 183.425781 205.5625 183.683594 205.730469 C 183.9375 205.902344 184.203125 206.054688 184.480469 206.195312 C 184.753906 206.335938 185.035156 206.457031 185.324219 206.5625 C 185.613281 206.671875 185.90625 206.761719 186.207031 206.832031 C 186.507812 206.90625 186.808594 206.960938 187.113281 207 C 187.421875 207.035156 187.726562 207.054688 188.035156 207.058594 C 188.34375 207.058594 188.652344 207.042969 188.957031 207.011719 C 189.261719 206.976562 189.566406 206.925781 189.867188 206.859375 C 190.167969 206.789062 190.460938 206.707031 190.753906 206.601562 C 191.042969 206.5 191.328125 206.382812 191.605469 206.246094 C 191.878906 206.109375 192.148438 205.960938 192.40625 205.792969 C 192.667969 205.628906 192.914062 205.445312 193.152344 205.25 C 193.390625 205.054688 193.617188 204.847656 193.832031 204.628906 C 194.046875 204.40625 194.25 204.171875 194.4375 203.929688 C 194.625 203.683594 194.796875 203.429688 194.953125 203.164062 C 195.113281 202.902344 195.253906 202.628906 195.378906 202.347656 C 195.507812 202.066406 195.617188 201.777344 195.710938 201.484375 C 195.804688 201.191406 195.878906 200.894531 195.9375 200.589844 C 195.996094 200.289062 196.039062 199.984375 196.0625 199.675781 C 196.085938 199.371094 196.089844 199.0625 196.078125 198.753906 C 196.066406 198.449219 196.039062 198.140625 195.988281 197.835938 C 195.941406 197.53125 195.878906 197.230469 195.796875 196.933594 C 195.714844 196.636719 195.613281 196.347656 195.5 196.0625 C 195.382812 195.777344 195.25 195.5 195.101562 195.226562 C 194.957031 194.957031 194.792969 194.695312 194.613281 194.445312 C 194.4375 194.195312 194.242188 193.953125 194.039062 193.726562 C 193.832031 193.496094 193.613281 193.28125 193.382812 193.074219 C 193.152344 192.871094 192.910156 192.683594 192.65625 192.507812 C 192.40625 192.328125 192.144531 192.167969 191.871094 192.023438 C 191.601562 191.878906 191.320312 191.75 191.035156 191.636719 C 190.75 191.523438 190.457031 191.425781 190.160156 191.34375 C 189.859375 191.265625 189.558594 191.203125 189.253906 191.160156 C 188.949219 191.113281 188.644531 191.085938 188.335938 191.078125 C 188.027344 191.066406 187.722656 191.078125 187.414062 191.101562 C 187.105469 191.128906 186.800781 191.171875 186.5 191.234375 C 186.199219 191.296875 185.902344 191.375 185.609375 191.46875 Z M 185.597656 191.460938 "/></g><path style=" stroke:none;fill-rule:nonzero;fill:#f8f9f9;fill-opacity:1;" d="M 153.621094 168.003906 L 163.667969 157.957031 C 164.011719 158.179688 164.367188 158.382812 164.734375 158.566406 C 165.101562 158.75 165.480469 158.910156 165.867188 159.046875 C 166.253906 159.183594 166.648438 159.300781 167.050781 159.390625 C 167.449219 159.480469 167.855469 159.546875 168.261719 159.589844 C 168.671875 159.632812 169.082031 159.652344 169.492188 159.648438 C 169.902344 159.640625 170.3125 159.613281 170.71875 159.558594 C 171.125 159.503906 171.527344 159.425781 171.925781 159.324219 C 172.324219 159.222656 172.714844 159.097656 173.097656 158.949219 C 173.484375 158.800781 173.855469 158.632812 174.21875 158.4375 C 174.582031 158.246094 174.933594 158.035156 175.269531 157.800781 C 175.609375 157.566406 175.929688 157.3125 176.238281 157.042969 C 176.546875 156.769531 176.835938 156.480469 177.109375 156.171875 C 177.386719 155.867188 177.640625 155.546875 177.875 155.207031 C 178.109375 154.871094 178.324219 154.523438 178.519531 154.160156 C 178.714844 153.796875 178.886719 153.425781 179.035156 153.042969 C 179.183594 152.660156 179.3125 152.269531 179.414062 151.875 C 179.519531 151.476562 179.597656 151.074219 179.65625 150.667969 C 179.710938 150.257812 179.742188 149.851562 179.75 149.441406 C 179.757812 149.027344 179.742188 148.617188 179.699219 148.210938 C 179.660156 147.800781 179.59375 147.394531 179.507812 146.996094 C 179.417969 146.59375 179.304688 146.199219 179.167969 145.8125 C 179.035156 145.425781 178.875 145.046875 178.695312 144.675781 C 178.515625 144.308594 178.3125 143.949219 178.089844 143.605469 C 177.867188 143.261719 177.625 142.929688 177.363281 142.613281 C 177.101562 142.296875 176.820312 141.996094 176.523438 141.714844 C 176.226562 141.429688 175.910156 141.164062 175.582031 140.917969 C 175.253906 140.671875 174.910156 140.445312 174.554688 140.242188 C 174.199219 140.035156 173.832031 139.851562 173.457031 139.691406 C 173.078125 139.527344 172.691406 139.390625 172.296875 139.273438 C 171.902344 139.15625 171.503906 139.0625 171.101562 138.996094 C 170.695312 138.925781 170.285156 138.878906 169.875 138.859375 C 169.464844 138.839844 169.054688 138.84375 168.644531 138.871094 C 168.234375 138.898438 167.828125 138.949219 167.425781 139.027344 C 167.023438 139.101562 166.625 139.203125 166.230469 139.324219 C 165.839844 139.449219 165.457031 139.59375 165.082031 139.761719 C 164.707031 139.933594 164.34375 140.121094 163.992188 140.332031 C 163.640625 140.546875 163.300781 140.777344 162.976562 141.027344 C 162.652344 141.28125 162.34375 141.550781 162.050781 141.839844 C 161.757812 142.128906 161.484375 142.433594 161.226562 142.753906 C 160.972656 143.074219 160.734375 143.410156 160.515625 143.757812 C 160.300781 144.105469 160.105469 144.46875 159.929688 144.839844 C 159.757812 145.210938 159.605469 145.59375 159.476562 145.984375 C 159.347656 146.375 159.242188 146.769531 159.160156 147.171875 C 159.078125 147.574219 159.019531 147.980469 158.984375 148.390625 C 158.953125 148.800781 158.941406 149.210938 158.957031 149.621094 C 158.972656 150.03125 159.011719 150.441406 159.074219 150.84375 C 159.136719 151.25 159.222656 151.652344 159.335938 152.046875 C 159.445312 152.445312 159.578125 152.832031 159.734375 153.210938 L 167.414062 148.164062 L 156.03125 159.546875 C 155.761719 159.394531 155.488281 159.261719 155.203125 159.140625 C 154.917969 159.019531 154.628906 158.917969 154.335938 158.832031 C 154.039062 158.746094 153.738281 158.675781 153.4375 158.625 C 153.132812 158.574219 152.828125 158.539062 152.519531 158.523438 C 152.210938 158.507812 151.90625 158.507812 151.597656 158.527344 C 151.289062 158.546875 150.984375 158.582031 150.679688 158.636719 C 150.378906 158.691406 150.078125 158.765625 149.785156 158.851562 C 149.488281 158.941406 149.203125 159.046875 148.917969 159.171875 C 148.636719 159.292969 148.363281 159.429688 148.09375 159.585938 C 147.828125 159.738281 147.570312 159.910156 147.324219 160.09375 C 147.078125 160.277344 146.84375 160.472656 146.617188 160.683594 C 146.394531 160.894531 146.183594 161.121094 145.984375 161.355469 C 145.785156 161.589844 145.601562 161.835938 145.433594 162.09375 C 145.261719 162.351562 145.109375 162.617188 144.96875 162.890625 C 144.828125 163.164062 144.707031 163.449219 144.601562 163.738281 C 144.492188 164.023438 144.402344 164.320312 144.332031 164.617188 C 144.257812 164.917969 144.203125 165.21875 144.167969 165.527344 C 144.128906 165.832031 144.109375 166.136719 144.105469 166.445312 C 144.105469 166.753906 144.121094 167.0625 144.152344 167.367188 C 144.1875 167.671875 144.238281 167.976562 144.304688 168.277344 C 144.375 168.578125 144.460938 168.871094 144.5625 169.164062 C 144.664062 169.453125 144.785156 169.738281 144.917969 170.011719 C 145.054688 170.289062 145.207031 170.558594 145.371094 170.816406 C 145.539062 171.074219 145.71875 171.324219 145.914062 171.5625 C 146.109375 171.800781 146.316406 172.027344 146.539062 172.242188 C 146.761719 172.457031 146.992188 172.65625 147.238281 172.84375 C 147.480469 173.03125 147.734375 173.203125 148 173.359375 C 148.265625 173.519531 148.539062 173.660156 148.816406 173.789062 C 149.097656 173.914062 149.386719 174.023438 149.679688 174.117188 C 149.972656 174.210938 150.269531 174.285156 150.574219 174.34375 C 150.875 174.402344 151.179688 174.445312 151.488281 174.46875 C 151.792969 174.492188 152.101562 174.496094 152.410156 174.484375 C 152.71875 174.472656 153.023438 174.441406 153.328125 174.394531 C 153.632812 174.347656 153.933594 174.28125 154.230469 174.199219 C 154.527344 174.117188 154.816406 174.019531 155.101562 173.902344 C 155.386719 173.789062 155.664062 173.65625 155.933594 173.507812 C 156.203125 173.359375 156.464844 173.195312 156.714844 173.019531 C 156.96875 172.839844 157.207031 172.648438 157.4375 172.441406 C 157.667969 172.238281 157.882812 172.019531 158.085938 171.789062 C 158.289062 171.558594 158.480469 171.316406 158.65625 171.0625 C 158.832031 170.808594 158.992188 170.546875 159.136719 170.277344 C 159.28125 170.003906 159.414062 169.726562 159.527344 169.441406 C 159.640625 169.152344 159.734375 168.863281 159.816406 168.5625 C 159.894531 168.265625 159.957031 167.964844 160 167.660156 C 160.046875 167.355469 160.074219 167.050781 160.082031 166.742188 C 160.089844 166.433594 160.082031 166.128906 160.058594 165.820312 C 160.03125 165.511719 159.988281 165.210938 159.925781 164.90625 C 159.863281 164.605469 159.785156 164.308594 159.6875 164.015625 Z M 153.621094 168.003906 "/><g style="fill:#f8f9f9;fill-opacity:1;"><g transform="translate(142.465381, 236.27704)"><path style="stroke:none" d="M 6.6875 0.15625 C 5.46875 0.15625 4.410156 -0.046875 3.515625 -0.453125 C 2.628906 -0.867188 1.945312 -1.457031 1.46875 -2.21875 C 0.988281 -2.976562 0.75 -3.878906 0.75 -4.921875 C 0.75 -5.847656 0.914062 -6.660156 1.25 -7.359375 C 1.59375 -8.054688 2.054688 -8.632812 2.640625 -9.09375 C 3.234375 -9.5625 3.914062 -9.910156 4.6875 -10.140625 C 5.457031 -10.367188 6.28125 -10.484375 7.15625 -10.484375 C 7.726562 -10.484375 8.285156 -10.421875 8.828125 -10.296875 C 9.378906 -10.171875 9.820312 -10.019531 10.15625 -9.84375 L 10.28125 -6.984375 L 9.015625 -6.90625 L 8.3125 -8.875 C 8.09375 -8.96875 7.875 -9.035156 7.65625 -9.078125 C 7.445312 -9.117188 7.226562 -9.140625 7 -9.140625 C 6.457031 -9.140625 5.976562 -9 5.5625 -8.71875 C 5.144531 -8.445312 4.816406 -8.035156 4.578125 -7.484375 C 4.347656 -6.929688 4.234375 -6.25 4.234375 -5.4375 C 4.234375 -4.59375 4.367188 -3.851562 4.640625 -3.21875 C 4.910156 -2.59375 5.269531 -2.109375 5.71875 -1.765625 C 6.175781 -1.421875 6.675781 -1.25 7.21875 -1.25 C 7.550781 -1.25 7.851562 -1.289062 8.125 -1.375 C 8.40625 -1.457031 8.644531 -1.578125 8.84375 -1.734375 L 9.421875 -3.390625 L 10.828125 -3.25 L 10.3125 -0.8125 C 9.957031 -0.539062 9.441406 -0.3125 8.765625 -0.125 C 8.097656 0.0625 7.40625 0.15625 6.6875 0.15625 Z M 6.6875 0.15625 "/></g><g transform="translate(153.680224, 236.27704)"><path style="stroke:none" d="M 0 0 L -0.046875 -1 L 0.875 -1.34375 L 4.4375 -9.671875 L 6.171875 -10.640625 L 10.359375 -1.34375 L 11.28125 -1 L 11.234375 0 L 5.796875 0 L 5.71875 -1 L 6.875 -1.34375 L 6.015625 -3.359375 L 5.8125 -4.015625 L 4.15625 -7.765625 L 4.75 -7.390625 L 3.515625 -4.09375 L 3.359375 -3.5625 L 2.578125 -1.34375 L 3.75 -1 L 3.6875 0 Z M 2.84375 -2.8125 L 2.84375 -4.1875 C 3.09375 -4.175781 3.34375 -4.15625 3.59375 -4.125 C 3.84375 -4.101562 4.191406 -4.09375 4.640625 -4.09375 C 5.078125 -4.09375 5.425781 -4.101562 5.6875 -4.125 C 5.957031 -4.15625 6.210938 -4.175781 6.453125 -4.1875 L 6.453125 -2.828125 C 6.359375 -2.828125 6.171875 -2.832031 5.890625 -2.84375 C 5.609375 -2.851562 5.191406 -2.859375 4.640625 -2.859375 C 4.066406 -2.859375 3.644531 -2.851562 3.375 -2.84375 C 3.113281 -2.832031 2.9375 -2.820312 2.84375 -2.8125 Z M 2.84375 -2.8125 "/></g><g transform="translate(164.807176, 236.27704)"><path style="stroke:none" d="M 0.65625 0 L 0.59375 -1 L 1.671875 -1.34375 C 1.703125 -1.382812 1.726562 -1.546875 1.75 -1.828125 C 1.769531 -2.109375 1.785156 -2.445312 1.796875 -2.84375 C 1.804688 -3.25 1.8125 -3.644531 1.8125 -4.03125 L 1.828125 -6.359375 C 1.828125 -6.734375 1.820312 -7.117188 1.8125 -7.515625 C 1.800781 -7.921875 1.785156 -8.269531 1.765625 -8.5625 C 1.742188 -8.863281 1.71875 -9.039062 1.6875 -9.09375 L 0.546875 -9.3125 L 0.59375 -10.3125 L 5.515625 -10.3125 C 7.140625 -10.3125 8.328125 -10.046875 9.078125 -9.515625 C 9.835938 -8.992188 10.21875 -8.242188 10.21875 -7.265625 C 10.21875 -6.617188 10.046875 -6.023438 9.703125 -5.484375 C 9.359375 -4.941406 8.84375 -4.507812 8.15625 -4.1875 C 7.476562 -3.863281 6.617188 -3.703125 5.578125 -3.703125 C 5.421875 -3.703125 5.25 -3.710938 5.0625 -3.734375 C 4.875 -3.765625 4.695312 -3.796875 4.53125 -3.828125 L 4.53125 -5.203125 C 4.59375 -5.171875 4.71875 -5.132812 4.90625 -5.09375 C 5.09375 -5.050781 5.328125 -5.03125 5.609375 -5.03125 C 6.085938 -5.03125 6.453125 -5.203125 6.703125 -5.546875 C 6.953125 -5.898438 7.078125 -6.390625 7.078125 -7.015625 C 7.078125 -7.773438 6.898438 -8.332031 6.546875 -8.6875 C 6.203125 -9.039062 5.6875 -9.21875 5 -9.21875 L 4.78125 -9.21875 C 4.78125 -9.101562 4.773438 -8.941406 4.765625 -8.734375 C 4.765625 -8.535156 4.765625 -8.242188 4.765625 -7.859375 C 4.765625 -7.484375 4.765625 -6.984375 4.765625 -6.359375 L 4.78125 -4.03125 C 4.78125 -3.644531 4.785156 -3.25 4.796875 -2.84375 C 4.816406 -2.445312 4.835938 -2.109375 4.859375 -1.828125 C 4.878906 -1.546875 4.894531 -1.375 4.90625 -1.3125 L 6.328125 -1.03125 L 6.28125 0 Z M 0.65625 0 "/></g><g transform="translate(175.54741, 236.27704)"><path style="stroke:none" d="M 4.3125 0.15625 C 3.8125 0.15625 3.25 0.0820312 2.625 -0.0625 C 2.007812 -0.21875 1.460938 -0.425781 0.984375 -0.6875 L 0.921875 -3.484375 L 2.28125 -3.546875 L 2.9375 -1.578125 C 3.125 -1.460938 3.363281 -1.363281 3.65625 -1.28125 C 3.957031 -1.195312 4.242188 -1.15625 4.515625 -1.15625 C 4.992188 -1.15625 5.351562 -1.242188 5.59375 -1.421875 C 5.832031 -1.609375 5.953125 -1.867188 5.953125 -2.203125 C 5.953125 -2.585938 5.832031 -2.894531 5.59375 -3.125 C 5.351562 -3.363281 5.039062 -3.554688 4.65625 -3.703125 C 4.28125 -3.859375 3.875 -4.007812 3.4375 -4.15625 C 3.007812 -4.3125 2.601562 -4.503906 2.21875 -4.734375 C 1.84375 -4.972656 1.535156 -5.28125 1.296875 -5.65625 C 1.054688 -6.039062 0.9375 -6.546875 0.9375 -7.171875 C 0.9375 -7.835938 1.128906 -8.421875 1.515625 -8.921875 C 1.898438 -9.429688 2.441406 -9.828125 3.140625 -10.109375 C 3.847656 -10.390625 4.675781 -10.53125 5.625 -10.53125 C 5.875 -10.53125 6.160156 -10.503906 6.484375 -10.453125 C 6.816406 -10.410156 7.140625 -10.347656 7.453125 -10.265625 C 7.765625 -10.191406 8.035156 -10.101562 8.265625 -10 L 8.53125 -7.203125 L 7.1875 -7.140625 L 6.578125 -9.015625 C 6.242188 -9.160156 5.867188 -9.234375 5.453125 -9.234375 C 5.066406 -9.234375 4.722656 -9.128906 4.421875 -8.921875 C 4.128906 -8.710938 3.984375 -8.398438 3.984375 -7.984375 C 3.984375 -7.617188 4.109375 -7.320312 4.359375 -7.09375 C 4.609375 -6.875 4.925781 -6.679688 5.3125 -6.515625 C 5.695312 -6.359375 6.109375 -6.195312 6.546875 -6.03125 C 6.984375 -5.863281 7.394531 -5.660156 7.78125 -5.421875 C 8.175781 -5.191406 8.492188 -4.890625 8.734375 -4.515625 C 8.984375 -4.148438 9.109375 -3.679688 9.109375 -3.109375 C 9.109375 -2.472656 8.90625 -1.910156 8.5 -1.421875 C 8.101562 -0.929688 7.546875 -0.546875 6.828125 -0.265625 C 6.117188 0.015625 5.28125 0.15625 4.3125 0.15625 Z M 4.3125 0.15625 "/></g><g transform="translate(185.074753, 236.27704)"><path style="stroke:none" d="M 10.703125 -10.421875 L 11.125 -7.125 L 9.84375 -7.03125 L 9.15625 -9.109375 C 9.050781 -9.128906 8.925781 -9.140625 8.78125 -9.140625 C 8.632812 -9.148438 8.460938 -9.15625 8.265625 -9.15625 L 7.71875 -9.15625 C 7.625 -9.15625 7.53125 -9.148438 7.4375 -9.140625 C 7.34375 -9.140625 7.285156 -9.132812 7.265625 -9.125 C 7.265625 -9.050781 7.253906 -8.828125 7.234375 -8.453125 C 7.222656 -8.078125 7.210938 -7.625 7.203125 -7.09375 C 7.203125 -6.5625 7.203125 -6.007812 7.203125 -5.4375 L 7.203125 -4.25 C 7.203125 -3.65625 7.210938 -3.097656 7.234375 -2.578125 C 7.253906 -2.066406 7.269531 -1.65625 7.28125 -1.34375 L 8.84375 -1.03125 L 8.796875 0 L 2.671875 0 L 2.625 -1.03125 L 4.1875 -1.34375 C 4.207031 -1.65625 4.222656 -2.066406 4.234375 -2.578125 C 4.242188 -3.097656 4.25 -3.65625 4.25 -4.25 L 4.25 -5.4375 C 4.25 -6.007812 4.242188 -6.5625 4.234375 -7.09375 C 4.234375 -7.625 4.226562 -8.078125 4.21875 -8.453125 C 4.21875 -8.828125 4.210938 -9.050781 4.203125 -9.125 C 4.179688 -9.132812 4.125 -9.140625 4.03125 -9.140625 C 3.9375 -9.148438 3.84375 -9.15625 3.75 -9.15625 L 3.1875 -9.15625 C 3 -9.15625 2.816406 -9.148438 2.640625 -9.140625 C 2.460938 -9.140625 2.320312 -9.128906 2.21875 -9.109375 L 1.59375 -7 L 0.3125 -7.109375 L 0.671875 -10.421875 C 0.785156 -10.421875 0.972656 -10.414062 1.234375 -10.40625 C 1.492188 -10.394531 1.773438 -10.382812 2.078125 -10.375 C 2.378906 -10.363281 2.671875 -10.347656 2.953125 -10.328125 C 3.234375 -10.316406 3.460938 -10.3125 3.640625 -10.3125 L 7.75 -10.3125 C 7.925781 -10.3125 8.15625 -10.316406 8.4375 -10.328125 C 8.71875 -10.347656 9.007812 -10.363281 9.3125 -10.375 C 9.625 -10.382812 9.90625 -10.394531 10.15625 -10.40625 C 10.40625 -10.414062 10.585938 -10.421875 10.703125 -10.421875 Z M 10.703125 -10.421875 "/></g><g transform="translate(196.553268, 236.27704)"><path style="stroke:none" d="M 6.5 0.15625 C 5.382812 0.15625 4.390625 -0.0625 3.515625 -0.5 C 2.648438 -0.945312 1.96875 -1.554688 1.46875 -2.328125 C 0.96875 -3.109375 0.71875 -3.988281 0.71875 -4.96875 C 0.71875 -6.039062 0.960938 -6.988281 1.453125 -7.8125 C 1.953125 -8.632812 2.632812 -9.285156 3.5 -9.765625 C 4.375 -10.242188 5.367188 -10.484375 6.484375 -10.484375 C 7.578125 -10.484375 8.539062 -10.265625 9.375 -9.828125 C 10.207031 -9.390625 10.859375 -8.785156 11.328125 -8.015625 C 11.796875 -7.242188 12.03125 -6.351562 12.03125 -5.34375 C 12.03125 -4.363281 11.84375 -3.523438 11.46875 -2.828125 C 11.101562 -2.128906 10.628906 -1.554688 10.046875 -1.109375 C 9.472656 -0.671875 8.867188 -0.347656 8.234375 -0.140625 C 7.609375 0.0546875 7.03125 0.15625 6.5 0.15625 Z M 6.609375 -1.375 C 7.085938 -1.375 7.476562 -1.503906 7.78125 -1.765625 C 8.082031 -2.023438 8.300781 -2.414062 8.4375 -2.9375 C 8.582031 -3.46875 8.65625 -4.113281 8.65625 -4.875 C 8.65625 -5.75 8.554688 -6.503906 8.359375 -7.140625 C 8.160156 -7.773438 7.882812 -8.265625 7.53125 -8.609375 C 7.1875 -8.953125 6.769531 -9.125 6.28125 -9.125 C 5.613281 -9.125 5.082031 -8.816406 4.6875 -8.203125 C 4.300781 -7.585938 4.109375 -6.722656 4.109375 -5.609375 C 4.109375 -4.773438 4.210938 -4.035156 4.421875 -3.390625 C 4.640625 -2.753906 4.9375 -2.257812 5.3125 -1.90625 C 5.6875 -1.550781 6.117188 -1.375 6.609375 -1.375 Z M 6.609375 -1.375 "/></g><g transform="translate(209.314986, 236.27704)"><path style="stroke:none" d="M 9.3125 -3.6875 L 9.3125 -5.625 C 9.3125 -6.113281 9.304688 -6.601562 9.296875 -7.09375 C 9.296875 -7.59375 9.285156 -8.015625 9.265625 -8.359375 C 9.253906 -8.710938 9.226562 -8.921875 9.1875 -8.984375 L 7.953125 -9.3125 L 8 -10.3125 L 12 -10.3125 L 12.0625 -9.3125 L 10.921875 -8.984375 C 10.890625 -8.921875 10.863281 -8.71875 10.84375 -8.375 C 10.820312 -8.03125 10.804688 -7.609375 10.796875 -7.109375 C 10.796875 -6.617188 10.796875 -6.125 10.796875 -5.625 L 10.796875 -2.796875 C 10.796875 -2.148438 10.789062 -1.609375 10.78125 -1.171875 C 10.78125 -0.734375 10.78125 -0.304688 10.78125 0.109375 L 9.53125 0.109375 L 2.078125 -7.765625 L 3.375 -7.765625 L 3.375 -5.03125 C 3.375 -4.445312 3.375 -3.882812 3.375 -3.34375 C 3.382812 -2.8125 3.398438 -2.363281 3.421875 -2 C 3.453125 -1.632812 3.484375 -1.414062 3.515625 -1.34375 L 4.765625 -1 L 4.71875 0 L 0.609375 0 L 0.5625 -1 L 1.703125 -1.34375 C 1.722656 -1.414062 1.742188 -1.644531 1.765625 -2.03125 C 1.785156 -2.425781 1.800781 -2.890625 1.8125 -3.421875 C 1.820312 -3.960938 1.828125 -4.5 1.828125 -5.03125 L 1.828125 -6.921875 C 1.828125 -7.066406 1.816406 -7.28125 1.796875 -7.5625 C 1.785156 -7.851562 1.769531 -8.140625 1.75 -8.421875 C 1.726562 -8.703125 1.710938 -8.890625 1.703125 -8.984375 L 0.5625 -9.3125 L 0.609375 -10.3125 L 3.640625 -10.3125 L 10.28125 -3.6875 Z M 9.3125 -3.6875 "/></g><g transform="translate(221.953657, 236.27704)"><path style="stroke:none" d="M 9.5625 0.125 C 9.195312 0.101562 8.726562 0.078125 8.15625 0.046875 C 7.59375 0.015625 7.085938 0 6.640625 0 L 0.578125 0 L 0.53125 -1 L 1.671875 -1.34375 C 1.691406 -1.382812 1.710938 -1.539062 1.734375 -1.8125 C 1.765625 -2.082031 1.785156 -2.421875 1.796875 -2.828125 C 1.804688 -3.242188 1.8125 -3.671875 1.8125 -4.109375 L 1.8125 -6.21875 C 1.8125 -6.675781 1.804688 -7.109375 1.796875 -7.515625 C 1.785156 -7.929688 1.765625 -8.269531 1.734375 -8.53125 C 1.710938 -8.800781 1.691406 -8.953125 1.671875 -8.984375 L 0.53125 -9.3125 L 0.578125 -10.3125 L 5.8125 -10.3125 C 6.113281 -10.3125 6.46875 -10.316406 6.875 -10.328125 C 7.289062 -10.335938 7.695312 -10.347656 8.09375 -10.359375 C 8.5 -10.378906 8.828125 -10.398438 9.078125 -10.421875 L 9.609375 -7.625 L 8.453125 -7.46875 L 7.75 -9.09375 C 7.5625 -9.125 7.398438 -9.144531 7.265625 -9.15625 C 7.140625 -9.164062 7.007812 -9.171875 6.875 -9.171875 L 5.953125 -9.171875 C 5.734375 -9.171875 5.507812 -9.164062 5.28125 -9.15625 C 5.050781 -9.15625 4.882812 -9.144531 4.78125 -9.125 C 4.769531 -9.007812 4.757812 -8.863281 4.75 -8.6875 C 4.75 -8.507812 4.742188 -8.273438 4.734375 -7.984375 C 4.734375 -7.691406 4.734375 -7.316406 4.734375 -6.859375 L 4.734375 -3.8125 C 4.734375 -3.34375 4.734375 -2.945312 4.734375 -2.625 C 4.742188 -2.300781 4.75 -2.035156 4.75 -1.828125 C 4.757812 -1.628906 4.769531 -1.46875 4.78125 -1.34375 C 5.019531 -1.300781 5.269531 -1.273438 5.53125 -1.265625 C 5.789062 -1.253906 6.140625 -1.25 6.578125 -1.25 L 7.03125 -1.25 C 7.363281 -1.25 7.59375 -1.25 7.71875 -1.25 C 7.851562 -1.25 7.953125 -1.253906 8.015625 -1.265625 C 8.085938 -1.273438 8.175781 -1.289062 8.28125 -1.3125 L 9.28125 -3.125 L 10.40625 -2.921875 Z M 7.15625 -3.453125 L 7 -4.625 C 6.914062 -4.625 6.769531 -4.625 6.5625 -4.625 C 6.363281 -4.632812 6.140625 -4.640625 5.890625 -4.640625 L 5.203125 -4.640625 C 4.972656 -4.640625 4.769531 -4.632812 4.59375 -4.625 C 4.414062 -4.613281 4.304688 -4.601562 4.265625 -4.59375 L 4.265625 -6.015625 C 4.304688 -6.003906 4.414062 -5.988281 4.59375 -5.96875 C 4.769531 -5.945312 4.972656 -5.9375 5.203125 -5.9375 L 5.890625 -5.9375 C 6.140625 -5.9375 6.363281 -5.9375 6.5625 -5.9375 C 6.769531 -5.945312 6.914062 -5.953125 7 -5.953125 L 7.15625 -7.109375 L 8.28125 -7.109375 L 8.28125 -3.453125 Z M 7.15625 -3.453125 "/></g></g><g style="fill:#f8f9f9;fill-opacity:1;"><g transform="translate(154.594286, 252.080945)"><path style="stroke:none" d="M 2.640625 0.03125 L 0.515625 -5.21875 L 0.015625 -5.359375 L 0.046875 -5.734375 L 2.0625 -5.734375 L 2.078125 -5.359375 L 1.484375 -5.21875 L 3.171875 -0.96875 L 2.96875 -0.96875 L 4.546875 -5.21875 L 3.859375 -5.359375 L 3.890625 -5.734375 L 5.6875 -5.734375 L 5.703125 -5.359375 L 5.21875 -5.21875 L 3.046875 0.03125 Z M 2.640625 0.03125 "/></g></g><g style="fill:#f8f9f9;fill-opacity:1;"><g transform="translate(161.804934, 252.080945)"><path style="stroke:none" d="M 4.75 0.046875 C 4.5625 0.0234375 4.394531 0.0078125 4.25 0 C 4.101562 0 3.960938 0 3.828125 0 L 0.484375 0 L 0.453125 -0.375 L 1.0625 -0.515625 C 1.0625 -0.546875 1.0625 -0.617188 1.0625 -0.734375 C 1.070312 -0.847656 1.078125 -1.003906 1.078125 -1.203125 C 1.085938 -1.410156 1.09375 -1.65625 1.09375 -1.9375 L 1.09375 -3.78125 C 1.09375 -4.070312 1.085938 -4.316406 1.078125 -4.515625 C 1.078125 -4.722656 1.070312 -4.882812 1.0625 -5 C 1.0625 -5.125 1.0625 -5.195312 1.0625 -5.21875 L 0.453125 -5.359375 L 0.484375 -5.734375 L 3.609375 -5.734375 C 3.703125 -5.734375 3.800781 -5.734375 3.90625 -5.734375 C 4.007812 -5.734375 4.117188 -5.738281 4.234375 -5.75 C 4.347656 -5.757812 4.46875 -5.765625 4.59375 -5.765625 L 4.78125 -4.484375 L 4.34375 -4.421875 L 4.03125 -5.234375 C 3.976562 -5.242188 3.914062 -5.25 3.84375 -5.25 C 3.78125 -5.257812 3.710938 -5.265625 3.640625 -5.265625 L 2.546875 -5.265625 C 2.421875 -5.265625 2.3125 -5.257812 2.21875 -5.25 C 2.125 -5.25 2.03125 -5.242188 1.9375 -5.234375 C 1.9375 -5.210938 1.929688 -5.140625 1.921875 -5.015625 C 1.921875 -4.890625 1.921875 -4.75 1.921875 -4.59375 C 1.921875 -4.4375 1.921875 -4.28125 1.921875 -4.125 L 1.921875 -1.5 C 1.921875 -1.363281 1.921875 -1.226562 1.921875 -1.09375 C 1.921875 -0.96875 1.921875 -0.851562 1.921875 -0.75 C 1.929688 -0.644531 1.9375 -0.570312 1.9375 -0.53125 C 2.03125 -0.519531 2.125 -0.507812 2.21875 -0.5 C 2.320312 -0.5 2.4375 -0.5 2.5625 -0.5 L 3.5 -0.5 C 3.644531 -0.5 3.765625 -0.5 3.859375 -0.5 C 3.953125 -0.507812 4.023438 -0.515625 4.078125 -0.515625 C 4.128906 -0.523438 4.171875 -0.53125 4.203125 -0.53125 L 4.703125 -1.46875 L 5.140625 -1.375 Z M 3.65625 -2 L 3.546875 -2.671875 C 3.515625 -2.679688 3.457031 -2.6875 3.375 -2.6875 C 3.300781 -2.695312 3.207031 -2.703125 3.09375 -2.703125 L 2.359375 -2.703125 C 2.273438 -2.703125 2.179688 -2.695312 2.078125 -2.6875 C 1.972656 -2.6875 1.867188 -2.679688 1.765625 -2.671875 L 1.765625 -3.21875 C 1.867188 -3.207031 1.972656 -3.195312 2.078125 -3.1875 C 2.179688 -3.1875 2.273438 -3.1875 2.359375 -3.1875 L 3.09375 -3.1875 C 3.207031 -3.1875 3.300781 -3.1875 3.375 -3.1875 C 3.457031 -3.195312 3.515625 -3.207031 3.546875 -3.21875 L 3.65625 -3.890625 L 4.078125 -3.890625 L 4.078125 -2 Z M 3.65625 -2 "/></g></g><g style="fill:#f8f9f9;fill-opacity:1;"><g transform="translate(168.732488, 252.080945)"><path style="stroke:none" d="M 0.515625 0 L 0.484375 -0.375 L 1.078125 -0.515625 C 1.078125 -0.566406 1.078125 -0.640625 1.078125 -0.734375 C 1.085938 -0.828125 1.09375 -0.9375 1.09375 -1.0625 C 1.09375 -1.195312 1.09375 -1.335938 1.09375 -1.484375 C 1.101562 -1.640625 1.109375 -1.789062 1.109375 -1.9375 L 1.109375 -3.78125 C 1.109375 -4.082031 1.101562 -4.332031 1.09375 -4.53125 C 1.09375 -4.738281 1.085938 -4.898438 1.078125 -5.015625 C 1.078125 -5.128906 1.070312 -5.195312 1.0625 -5.21875 L 0.453125 -5.359375 L 0.484375 -5.734375 L 2.625 -5.734375 C 3.238281 -5.734375 3.707031 -5.613281 4.03125 -5.375 C 4.351562 -5.132812 4.515625 -4.785156 4.515625 -4.328125 C 4.515625 -4.003906 4.425781 -3.71875 4.25 -3.46875 C 4.070312 -3.21875 3.820312 -3.019531 3.5 -2.875 C 3.1875 -2.738281 2.832031 -2.671875 2.4375 -2.671875 L 1.8125 -2.671875 L 1.8125 -3.109375 L 2.359375 -3.109375 C 2.765625 -3.109375 3.078125 -3.207031 3.296875 -3.40625 C 3.523438 -3.613281 3.640625 -3.894531 3.640625 -4.25 C 3.640625 -4.59375 3.539062 -4.851562 3.34375 -5.03125 C 3.15625 -5.207031 2.878906 -5.296875 2.515625 -5.296875 L 1.9375 -5.296875 C 1.9375 -5.285156 1.929688 -5.257812 1.921875 -5.21875 C 1.921875 -5.1875 1.921875 -5.125 1.921875 -5.03125 C 1.921875 -4.9375 1.921875 -4.800781 1.921875 -4.625 C 1.921875 -4.445312 1.921875 -4.210938 1.921875 -3.921875 L 1.921875 -1.9375 C 1.921875 -1.664062 1.921875 -1.429688 1.921875 -1.234375 C 1.929688 -1.046875 1.941406 -0.894531 1.953125 -0.78125 C 1.960938 -0.664062 1.96875 -0.578125 1.96875 -0.515625 L 2.546875 -0.375 L 2.515625 0 Z M 5.140625 0.09375 C 4.847656 0.09375 4.59375 0.0390625 4.375 -0.0625 C 4.15625 -0.164062 3.941406 -0.34375 3.734375 -0.59375 C 3.523438 -0.851562 3.300781 -1.195312 3.0625 -1.625 L 2.390625 -2.828125 L 3.125 -3 L 4.1875 -1.453125 C 4.363281 -1.179688 4.523438 -0.960938 4.671875 -0.796875 C 4.816406 -0.640625 4.960938 -0.519531 5.109375 -0.4375 C 5.253906 -0.363281 5.410156 -0.3125 5.578125 -0.28125 L 5.5625 0.0625 C 5.5 0.0703125 5.429688 0.078125 5.359375 0.078125 C 5.285156 0.0859375 5.210938 0.09375 5.140625 0.09375 Z M 5.140625 0.09375 "/></g></g><g style="fill:#f8f9f9;fill-opacity:1;"><g transform="translate(175.767423, 252.080945)"><path style="stroke:none" d="M 2.203125 0.09375 C 1.910156 0.09375 1.613281 0.0546875 1.3125 -0.015625 C 1.019531 -0.0859375 0.773438 -0.179688 0.578125 -0.296875 L 0.53125 -1.546875 L 0.953125 -1.59375 L 1.21875 -0.71875 C 1.375 -0.613281 1.546875 -0.535156 1.734375 -0.484375 C 1.929688 -0.429688 2.132812 -0.40625 2.34375 -0.40625 C 2.664062 -0.40625 2.921875 -0.484375 3.109375 -0.640625 C 3.304688 -0.796875 3.40625 -1.003906 3.40625 -1.265625 C 3.40625 -1.492188 3.335938 -1.6875 3.203125 -1.84375 C 3.066406 -2 2.890625 -2.128906 2.671875 -2.234375 C 2.453125 -2.347656 2.21875 -2.457031 1.96875 -2.5625 C 1.726562 -2.675781 1.5 -2.800781 1.28125 -2.9375 C 1.070312 -3.082031 0.894531 -3.253906 0.75 -3.453125 C 0.613281 -3.660156 0.546875 -3.921875 0.546875 -4.234375 C 0.546875 -4.546875 0.632812 -4.820312 0.8125 -5.0625 C 0.988281 -5.3125 1.234375 -5.5 1.546875 -5.625 C 1.859375 -5.757812 2.21875 -5.828125 2.625 -5.828125 C 2.789062 -5.828125 2.953125 -5.816406 3.109375 -5.796875 C 3.273438 -5.785156 3.425781 -5.757812 3.5625 -5.71875 C 3.695312 -5.6875 3.820312 -5.648438 3.9375 -5.609375 L 4.015625 -4.390625 L 3.59375 -4.34375 L 3.328125 -5.171875 C 3.117188 -5.296875 2.847656 -5.359375 2.515625 -5.359375 C 2.179688 -5.359375 1.914062 -5.273438 1.71875 -5.109375 C 1.519531 -4.953125 1.421875 -4.742188 1.421875 -4.484375 C 1.421875 -4.242188 1.488281 -4.046875 1.625 -3.890625 C 1.769531 -3.734375 1.953125 -3.59375 2.171875 -3.46875 C 2.390625 -3.351562 2.617188 -3.242188 2.859375 -3.140625 C 3.109375 -3.035156 3.34375 -2.910156 3.5625 -2.765625 C 3.78125 -2.628906 3.957031 -2.460938 4.09375 -2.265625 C 4.238281 -2.066406 4.3125 -1.820312 4.3125 -1.53125 C 4.3125 -1.21875 4.21875 -0.9375 4.03125 -0.6875 C 3.851562 -0.445312 3.601562 -0.253906 3.28125 -0.109375 C 2.96875 0.0234375 2.609375 0.09375 2.203125 0.09375 Z M 2.203125 0.09375 "/></g></g><g style="fill:#f8f9f9;fill-opacity:1;"><g transform="translate(181.943318, 252.080945)"><path style="stroke:none" d="M 0.484375 0 L 0.453125 -0.375 L 1.0625 -0.515625 C 1.070312 -0.546875 1.078125 -0.617188 1.078125 -0.734375 C 1.078125 -0.847656 1.078125 -1.003906 1.078125 -1.203125 C 1.085938 -1.410156 1.09375 -1.65625 1.09375 -1.9375 L 1.09375 -3.78125 C 1.09375 -4.070312 1.085938 -4.316406 1.078125 -4.515625 C 1.078125 -4.722656 1.078125 -4.890625 1.078125 -5.015625 C 1.078125 -5.140625 1.070312 -5.207031 1.0625 -5.21875 L 0.453125 -5.359375 L 0.484375 -5.734375 L 2.5625 -5.734375 L 2.578125 -5.359375 L 1.984375 -5.21875 C 1.972656 -5.207031 1.960938 -5.144531 1.953125 -5.03125 C 1.941406 -4.925781 1.929688 -4.769531 1.921875 -4.5625 C 1.921875 -4.363281 1.921875 -4.101562 1.921875 -3.78125 L 1.921875 -1.9375 C 1.921875 -1.625 1.921875 -1.367188 1.921875 -1.171875 C 1.929688 -0.972656 1.941406 -0.816406 1.953125 -0.703125 C 1.960938 -0.597656 1.972656 -0.535156 1.984375 -0.515625 L 2.578125 -0.375 L 2.5625 0 Z M 0.484375 0 "/></g></g><g style="fill:#f8f9f9;fill-opacity:1;"><g transform="translate(186.469467, 252.080945)"><path style="stroke:none" d="M 3.40625 0.09375 C 2.84375 0.09375 2.335938 -0.03125 1.890625 -0.28125 C 1.453125 -0.53125 1.109375 -0.875 0.859375 -1.3125 C 0.617188 -1.757812 0.5 -2.269531 0.5 -2.84375 C 0.5 -3.414062 0.625 -3.925781 0.875 -4.375 C 1.125 -4.820312 1.472656 -5.175781 1.921875 -5.4375 C 2.367188 -5.695312 2.867188 -5.828125 3.421875 -5.828125 C 3.972656 -5.828125 4.457031 -5.703125 4.875 -5.453125 C 5.289062 -5.203125 5.617188 -4.859375 5.859375 -4.421875 C 6.097656 -3.984375 6.21875 -3.476562 6.21875 -2.90625 C 6.21875 -2.46875 6.140625 -2.066406 5.984375 -1.703125 C 5.835938 -1.335938 5.632812 -1.019531 5.375 -0.75 C 5.113281 -0.488281 4.8125 -0.28125 4.46875 -0.125 C 4.132812 0.0195312 3.78125 0.09375 3.40625 0.09375 Z M 3.5 -0.4375 C 3.851562 -0.4375 4.160156 -0.523438 4.421875 -0.703125 C 4.679688 -0.890625 4.878906 -1.148438 5.015625 -1.484375 C 5.148438 -1.828125 5.21875 -2.222656 5.21875 -2.671875 C 5.21875 -3.203125 5.132812 -3.664062 4.96875 -4.0625 C 4.8125 -4.457031 4.59375 -4.765625 4.3125 -4.984375 C 4.03125 -5.210938 3.695312 -5.328125 3.3125 -5.328125 C 2.757812 -5.328125 2.320312 -5.117188 2 -4.703125 C 1.675781 -4.296875 1.515625 -3.738281 1.515625 -3.03125 C 1.515625 -2.519531 1.597656 -2.070312 1.765625 -1.6875 C 1.929688 -1.300781 2.164062 -0.992188 2.46875 -0.765625 C 2.769531 -0.546875 3.113281 -0.4375 3.5 -0.4375 Z M 3.5 -0.4375 "/></g></g><g style="fill:#f8f9f9;fill-opacity:1;"><g transform="translate(194.666057, 252.080945)"><path style="stroke:none" d="M 4.9375 -1.390625 L 4.9375 -3.578125 C 4.9375 -3.960938 4.929688 -4.269531 4.921875 -4.5 C 4.921875 -4.738281 4.914062 -4.914062 4.90625 -5.03125 C 4.894531 -5.144531 4.890625 -5.207031 4.890625 -5.21875 L 4.21875 -5.359375 L 4.25 -5.734375 L 6.109375 -5.734375 L 6.140625 -5.359375 L 5.53125 -5.21875 C 5.53125 -5.207031 5.523438 -5.144531 5.515625 -5.03125 C 5.503906 -4.914062 5.492188 -4.738281 5.484375 -4.5 C 5.484375 -4.269531 5.484375 -3.960938 5.484375 -3.578125 L 5.484375 -1.265625 C 5.484375 -1.054688 5.484375 -0.84375 5.484375 -0.625 C 5.484375 -0.40625 5.484375 -0.179688 5.484375 0.046875 L 5.046875 0.046875 L 1.453125 -4.796875 L 1.671875 -4.796875 L 1.671875 -2.171875 C 1.671875 -1.785156 1.671875 -1.472656 1.671875 -1.234375 C 1.679688 -1.003906 1.691406 -0.832031 1.703125 -0.71875 C 1.710938 -0.601562 1.722656 -0.535156 1.734375 -0.515625 L 2.390625 -0.375 L 2.359375 0 L 0.484375 0 L 0.453125 -0.375 L 1.0625 -0.515625 C 1.070312 -0.535156 1.078125 -0.597656 1.078125 -0.703125 C 1.085938 -0.816406 1.09375 -0.992188 1.09375 -1.234375 C 1.101562 -1.472656 1.109375 -1.785156 1.109375 -2.171875 L 1.109375 -3.84375 C 1.109375 -4.132812 1.101562 -4.375 1.09375 -4.5625 C 1.09375 -4.757812 1.085938 -4.910156 1.078125 -5.015625 C 1.078125 -5.117188 1.070312 -5.1875 1.0625 -5.21875 L 0.453125 -5.359375 L 0.484375 -5.734375 L 1.828125 -5.734375 L 5.109375 -1.390625 Z M 4.9375 -1.390625 "/></g></g><g style="fill:#f8f9f9;fill-opacity:1;"><g transform="translate(202.745505, 252.080945)"><path style="stroke:none" d=""/></g></g><g style="fill:#f8f9f9;fill-opacity:1;"><g transform="translate(206.119761, 252.080945)"><path style="stroke:none" d="M 2.140625 -1.921875 C 2.140625 -1.609375 2.140625 -1.347656 2.140625 -1.140625 C 2.148438 -0.941406 2.15625 -0.789062 2.15625 -0.6875 C 2.164062 -0.582031 2.179688 -0.519531 2.203125 -0.5 L 2.984375 -0.359375 L 2.953125 0 L 0.5625 0 L 0.546875 -0.359375 L 1.3125 -0.5 C 1.3125 -0.539062 1.316406 -0.625 1.328125 -0.75 C 1.335938 -0.875 1.34375 -1.035156 1.34375 -1.234375 C 1.351562 -1.441406 1.359375 -1.671875 1.359375 -1.921875 L 1.359375 -3.796875 C 1.359375 -3.984375 1.351562 -4.164062 1.34375 -4.34375 C 1.332031 -4.53125 1.320312 -4.703125 1.3125 -4.859375 L 0.484375 -4.671875 L 0.453125 -5.09375 L 2.171875 -5.828125 C 2.171875 -5.640625 2.164062 -5.394531 2.15625 -5.09375 C 2.144531 -4.800781 2.140625 -4.425781 2.140625 -3.96875 Z M 2.140625 -1.921875 "/></g></g><g style="fill:#f8f9f9;fill-opacity:1;"><g transform="translate(210.938765, 252.080945)"><path style="stroke:none" d="M 1.140625 0.09375 C 0.960938 0.09375 0.816406 0.0351562 0.703125 -0.078125 C 0.585938 -0.191406 0.53125 -0.335938 0.53125 -0.515625 C 0.53125 -0.617188 0.554688 -0.710938 0.609375 -0.796875 C 0.660156 -0.890625 0.734375 -0.960938 0.828125 -1.015625 C 0.921875 -1.066406 1.023438 -1.09375 1.140625 -1.09375 C 1.316406 -1.09375 1.460938 -1.035156 1.578125 -0.921875 C 1.703125 -0.816406 1.765625 -0.679688 1.765625 -0.515625 C 1.765625 -0.335938 1.703125 -0.191406 1.578125 -0.078125 C 1.460938 0.0351562 1.316406 0.09375 1.140625 0.09375 Z M 1.140625 0.09375 "/></g></g><g style="fill:#f8f9f9;fill-opacity:1;"><g transform="translate(214.723017, 252.080945)"><path style="stroke:none" d="M 2.875 0.09375 C 2.414062 0.09375 2.007812 -0.0234375 1.65625 -0.265625 C 1.300781 -0.515625 1.023438 -0.859375 0.828125 -1.296875 C 0.628906 -1.742188 0.53125 -2.257812 0.53125 -2.84375 C 0.53125 -3.425781 0.632812 -3.9375 0.84375 -4.375 C 1.050781 -4.820312 1.332031 -5.175781 1.6875 -5.4375 C 2.039062 -5.695312 2.445312 -5.828125 2.90625 -5.828125 C 3.34375 -5.828125 3.726562 -5.703125 4.0625 -5.453125 C 4.394531 -5.210938 4.65625 -4.875 4.84375 -4.4375 C 5.03125 -4 5.125 -3.488281 5.125 -2.90625 C 5.125 -2.351562 5.023438 -1.847656 4.828125 -1.390625 C 4.628906 -0.929688 4.359375 -0.566406 4.015625 -0.296875 C 3.679688 -0.0351562 3.300781 0.09375 2.875 0.09375 Z M 2.9375 -0.40625 C 3.195312 -0.40625 3.421875 -0.492188 3.609375 -0.671875 C 3.796875 -0.859375 3.941406 -1.117188 4.046875 -1.453125 C 4.148438 -1.796875 4.203125 -2.203125 4.203125 -2.671875 C 4.203125 -3.503906 4.078125 -4.160156 3.828125 -4.640625 C 3.578125 -5.117188 3.242188 -5.359375 2.828125 -5.359375 C 2.410156 -5.359375 2.082031 -5.15625 1.84375 -4.75 C 1.601562 -4.34375 1.484375 -3.769531 1.484375 -3.03125 C 1.484375 -2.5 1.539062 -2.035156 1.65625 -1.640625 C 1.78125 -1.253906 1.953125 -0.953125 2.171875 -0.734375 C 2.390625 -0.515625 2.644531 -0.40625 2.9375 -0.40625 Z M 2.9375 -0.40625 "/></g></g></g></svg>